<?xml version="1.0" encoding="UTF-8"?>
<svg width="448px" height="512px" viewBox="0 0 448 512" version="1.1" xmlns="http://www.w3.org/2000/svg" xmlns:xlink="http://www.w3.org/1999/xlink">
    <title>user-solid</title>
    <desc>navbar toggle</desc>
    <g id="Page-1" stroke="none" stroke-width="1" fill="none" fill-rule="evenodd">
        <g id="user-solid" fill="#000000" fill-rule="nonzero">
            <path d="M224,256 C294.7,256 352,198.7 352,128 C352,57.3 294.7,0 224,0 C153.3,0 96,57.3 96,128 C96,198.7 153.3,256 224,256 Z M313.6,288 L296.9,288 C274.7,298.2 250,304 224,304 C198,304 173.4,298.2 151.1,288 L134.4,288 C60.2,288 0,348.2 0,422.4 L0,464 C0,490.5 21.5,512 48,512 L400,512 C426.5,512 448,490.5 448,464 L448,422.4 C448,348.2 387.8,288 313.6,288 Z" id="Shape"></path>
        </g>
    </g>
</svg>